<?xml version="1.0" standalone="no"?>
<!DOCTYPE svg PUBLIC "-//W3C//DTD SVG 20010904//EN"
 "http://www.w3.org/TR/2001/REC-SVG-20010904/DTD/svg10.dtd">
<svg version="1.0" xmlns="http://www.w3.org/2000/svg"
 width="1042.000000pt" height="725.000000pt" viewBox="0 0 1042.000000 725.000000"
 preserveAspectRatio="xMidYMid meet">

<g transform="translate(0.000000,725.000000) scale(0.100000,-0.100000)"
fill="#000000" stroke="none">
<path d="M5501 5422 c-410 -2 -415 -2 -438 -24 -13 -12 -23 -24 -23 -28 0 -7
116 -20 405 -46 249 -22 295 -27 295 -30 0 -7 -117 -205 -150 -254 -21 -30
-80 -129 -133 -220 -246 -425 -350 -601 -397 -675 -51 -81 -70 -125 -53 -125
6 0 61 62 124 138 63 75 134 160 159 188 25 28 120 139 212 247 142 166 173
197 200 202 18 3 88 12 156 20 67 9 129 18 137 21 20 8 19 -8 -3 -37 -10 -13
-50 -69 -87 -124 -119 -174 -277 -395 -286 -401 -11 -7 -12 -44 0 -44 4 0 46
44 92 97 81 95 312 350 505 560 52 56 94 107 94 114 0 9 -49 11 -225 6 -124
-4 -225 -4 -225 -1 0 4 15 23 33 44 85 97 296 356 296 364 1 11 -108 12 -688
8z"/>
<path d="M4905 4640 c-3 -5 -1 -10 4 -10 6 0 11 5 11 10 0 6 -2 10 -4 10 -3 0
-8 -4 -11 -10z"/>
<path d="M6840 4590 c0 -5 5 -10 10 -10 6 0 10 5 10 10 0 6 -4 10 -10 10 -5 0
-10 -4 -10 -10z"/>
<path d="M1185 4226 c-97 -27 -134 -46 -186 -93 -105 -95 -159 -248 -159 -451
l0 -92 160 0 160 0 0 58 c0 86 24 204 51 252 60 107 247 108 307 1 28 -50 45
-154 37 -226 -18 -174 -63 -247 -290 -468 -111 -109 -272 -318 -312 -407 -90
-200 -114 -294 -116 -455 l-2 -110 525 0 525 0 0 145 0 145 -345 5 c-190 3
-346 7 -347 8 -23 19 125 239 283 422 31 36 100 110 153 165 181 186 230 272
267 460 40 204 -1 398 -110 513 -126 134 -383 188 -601 128z"/>
<path d="M2392 4148 c-16 -35 -40 -85 -52 -113 -13 -27 -40 -86 -60 -130 -40
-85 -72 -155 -114 -247 -49 -109 -74 -163 -181 -393 -20 -44 -43 -93 -50 -110
-8 -16 -32 -70 -54 -118 l-41 -89 0 -159 0 -159 294 0 c162 0 301 -3 310 -6
14 -5 16 -32 16 -200 l0 -194 165 0 165 0 2 198 3 197 78 3 77 3 0 139 0 139
-77 3 -78 3 -5 645 -5 645 -182 3 -182 2 -29 -62z m76 -849 l-3 -394 -183 -3
c-161 -2 -183 -1 -189 14 -3 9 1 28 10 43 8 14 36 76 62 136 26 61 66 151 89
200 23 50 71 155 106 235 66 150 87 187 102 172 4 -4 7 -186 6 -403z"/>
<path d="M4590 3972 c-56 -19 129 -22 1270 -22 847 0 1280 3 1280 10 0 6 -3
10 -7 10 -515 3 -2536 4 -2543 2z"/>
<path d="M9449 3871 c-66 -66 -17 -181 77 -181 92 0 140 116 75 181 -24 24
-38 29 -76 29 -38 0 -52 -5 -76 -29z m139 -17 c30 -35 30 -87 -3 -119 -52 -53
-145 -16 -145 57 0 87 91 125 148 62z"/>
<path d="M9480 3795 c0 -42 3 -55 15 -55 8 0 15 9 15 20 0 11 4 20 9 20 5 0
13 -9 16 -20 3 -11 13 -20 21 -20 17 0 18 12 3 27 -8 8 -7 16 2 30 20 33 5 53
-41 53 l-40 0 0 -55z m64 26 c3 -5 -1 -12 -10 -15 -22 -9 -24 -8 -24 9 0 16
25 21 34 6z"/>
<path d="M3680 3694 c-82 -9 -157 -27 -201 -49 -54 -28 -121 -92 -155 -151
-107 -182 -116 -896 -14 -1119 40 -89 158 -192 240 -210 58 -13 342 -17 353
-6 6 6 21 11 33 11 12 0 40 10 63 22 114 61 184 158 213 298 42 202 42 680 -1
875 -34 156 -146 274 -291 310 -60 15 -185 25 -240 19z m174 -229 c38 -25 76
-95 88 -162 6 -32 12 -184 15 -339 5 -293 -8 -447 -40 -511 -46 -87 -135 -121
-242 -92 -53 15 -99 66 -118 131 -49 170 -49 690 0 857 18 63 63 117 107 131
47 14 158 6 190 -15z"/>
<path d="M4500 2926 c0 -478 3 -737 10 -741 13 -8 229 -9 237 -1 4 3 6 225 4
494 -2 558 3 589 63 430 15 -40 34 -86 41 -103 7 -16 21 -50 30 -75 9 -25 20
-54 25 -65 4 -11 34 -85 65 -165 70 -178 72 -183 86 -217 18 -43 31 -76 39
-98 4 -11 12 -31 18 -45 5 -14 15 -41 22 -60 7 -19 19 -49 28 -67 l16 -32 134
-3 c74 -2 136 0 138 4 2 4 4 337 4 740 l0 733 -125 3 -125 3 0 -506 c0 -304
-4 -505 -9 -505 -11 0 -45 72 -90 190 -45 118 -47 122 -59 150 -5 14 -34 86
-62 160 -47 120 -147 376 -171 438 -31 78 -17 72 -176 72 l-143 0 0 -734z"/>
<path d="M5750 2927 c0 -449 4 -737 9 -742 6 -6 161 -8 403 -5 l393 5 3 113
c2 86 0 112 -10 112 -7 1 -125 2 -261 3 -208 2 -249 4 -257 17 -6 9 -10 257
-10 623 l0 607 -135 0 -135 0 0 -733z"/>
<path d="M6782 2919 l3 -740 122 0 c68 0 127 2 133 6 7 4 10 254 10 741 l0
734 -135 0 -135 0 2 -741z"/>
<path d="M7342 2919 l3 -741 120 1 c66 0 121 4 123 9 1 5 4 229 5 498 1 302 6
490 12 493 12 5 19 -9 75 -149 12 -30 26 -64 30 -75 5 -11 31 -81 60 -155 29
-74 57 -146 62 -160 6 -14 14 -34 19 -45 4 -11 15 -38 24 -60 9 -22 44 -110
78 -195 l62 -155 133 -5 c78 -3 137 -1 143 4 5 6 9 296 9 743 l0 733 -125 0
-125 0 0 -506 c0 -382 -3 -505 -12 -502 -11 4 -45 64 -66 118 -6 14 -58 149
-117 300 -113 293 -122 315 -136 342 -5 10 -9 22 -9 28 0 6 -9 29 -19 53 -11
23 -30 70 -42 105 l-24 62 -143 0 -142 0 2 -741z"/>
<path d="M8590 2922 c0 -406 2 -741 4 -743 2 -2 181 -2 398 1 l393 5 3 113 3
112 -254 0 c-183 0 -256 3 -265 12 -9 9 -12 69 -12 210 0 189 1 198 21 208 13
8 91 10 235 8 171 -2 215 0 219 10 3 8 5 56 5 108 l0 94 -228 0 c-164 0 -231
3 -240 12 -8 8 -12 63 -12 180 l0 167 33 6 c17 3 132 5 254 3 179 -2 224 0
228 10 3 8 5 61 5 118 l0 104 -395 0 -395 0 0 -738z"/>
<path d="M1210 1744 c-11 -12 -10 -18 3 -32 16 -15 18 -15 34 0 13 14 14 20 3
32 -7 9 -16 16 -20 16 -4 0 -13 -7 -20 -16z"/>
<path d="M1510 1744 c-11 -12 -10 -18 3 -32 16 -15 18 -15 34 0 13 14 14 20 3
32 -7 9 -16 16 -20 16 -4 0 -13 -7 -20 -16z"/>
<path d="M4430 1744 c-11 -12 -10 -18 3 -32 16 -15 18 -15 34 0 13 14 14 20 3
32 -7 9 -16 16 -20 16 -4 0 -13 -7 -20 -16z"/>
<path d="M9010 1744 c-11 -12 -10 -18 3 -32 16 -15 18 -15 34 0 13 14 14 20 3
32 -7 9 -16 16 -20 16 -4 0 -13 -7 -20 -16z"/>
<path d="M1310 1600 c0 -133 1 -140 20 -140 19 0 20 7 20 140 0 133 -1 140
-20 140 -19 0 -20 -7 -20 -140z"/>
<path d="M1410 1600 c0 -133 1 -140 20 -140 19 0 20 7 20 140 0 133 -1 140
-20 140 -19 0 -20 -7 -20 -140z"/>
<path d="M2900 1695 c0 -42 -11 -58 -25 -35 -3 6 -26 10 -51 10 -63 0 -94 -34
-94 -102 0 -41 5 -54 29 -79 34 -33 83 -39 119 -13 20 14 22 14 22 0 0 -9 9
-16 20 -16 19 0 20 7 20 140 0 133 -1 140 -20 140 -17 0 -20 -7 -20 -45z m-25
-80 c14 -13 25 -36 25 -50 0 -28 -40 -75 -63 -75 -8 0 -26 9 -41 21 -33 26
-36 79 -6 109 27 27 56 25 85 -5z"/>
<path d="M4010 1695 c0 -42 -11 -58 -25 -35 -3 6 -26 10 -51 10 -63 0 -94 -34
-94 -102 0 -41 5 -54 29 -79 34 -33 83 -39 119 -13 20 14 22 14 22 0 0 -9 9
-16 20 -16 19 0 20 7 20 140 0 133 -1 140 -20 140 -17 0 -20 -7 -20 -45z m-25
-80 c14 -13 25 -36 25 -50 0 -28 -40 -75 -63 -75 -8 0 -26 9 -41 21 -33 26
-36 79 -6 109 27 27 56 25 85 -5z"/>
<path d="M4690 1695 c0 -42 -11 -58 -25 -35 -3 6 -26 10 -51 10 -63 0 -94 -34
-94 -102 0 -41 5 -54 29 -79 34 -33 83 -39 119 -13 20 14 22 14 22 0 0 -9 9
-16 20 -16 19 0 20 7 20 140 0 133 -1 140 -20 140 -17 0 -20 -7 -20 -45z m-25
-80 c14 -13 25 -36 25 -50 0 -28 -40 -75 -63 -75 -8 0 -26 9 -41 21 -33 26
-36 79 -6 109 27 27 56 25 85 -5z"/>
<path d="M4940 1600 c0 -133 1 -140 20 -140 18 0 20 7 20 70 0 75 19 110 58
110 37 0 52 -32 52 -108 0 -65 2 -72 20 -72 18 0 20 7 20 83 0 70 -3 87 -20
105 -23 24 -77 30 -111 12 -17 -10 -19 -7 -19 35 0 38 -3 45 -20 45 -19 0 -20
-7 -20 -140z"/>
<path d="M8510 1600 c0 -133 1 -140 20 -140 19 0 20 7 20 140 0 133 -1 140
-20 140 -19 0 -20 -7 -20 -140z"/>
<path d="M960 1595 l0 -135 69 0 c54 0 74 4 95 21 31 24 35 70 8 97 -17 16
-17 18 1 43 43 60 -10 109 -118 109 l-55 0 0 -135z m138 63 c4 -31 -24 -51
-66 -46 -23 3 -27 8 -30 41 l-3 38 48 -3 c44 -3 48 -5 51 -30z m2 -92 c22 -28
8 -60 -31 -70 -54 -13 -69 -4 -69 44 l0 40 44 0 c26 0 48 -6 56 -14z"/>
<path d="M3100 1595 l0 -135 69 0 c54 0 74 4 95 21 31 24 35 70 8 97 -17 16
-17 18 1 43 43 60 -10 109 -118 109 l-55 0 0 -135z m138 63 c4 -31 -24 -51
-66 -46 -23 3 -27 8 -30 41 l-3 38 48 -3 c44 -3 48 -5 51 -30z m2 -92 c22 -28
8 -60 -31 -70 -54 -13 -69 -4 -69 44 l0 40 44 0 c26 0 48 -6 56 -14z"/>
<path d="M5290 1595 c0 -128 1 -135 20 -135 18 0 20 7 20 86 0 47 3 83 8 80 4
-2 23 -41 42 -85 22 -54 39 -81 50 -81 11 0 28 27 50 81 19 44 38 83 42 85 5
3 8 -33 8 -80 0 -79 2 -86 20 -86 19 0 20 7 20 135 0 134 0 135 -23 135 -19 0
-29 -15 -66 -100 -24 -55 -47 -100 -50 -100 -4 0 -27 45 -51 100 -38 84 -48
100 -67 100 -23 0 -23 -1 -23 -135z"/>
<path d="M8064 1718 c-33 -15 -48 -55 -33 -89 9 -22 23 -33 66 -46 67 -21 86
-48 53 -75 -29 -23 -45 -23 -70 2 -11 11 -29 20 -40 20 -18 0 -19 -3 -9 -22
19 -36 40 -47 87 -48 32 0 49 6 67 25 48 47 27 99 -51 125 -51 18 -71 38 -61
64 8 20 60 21 77 1 15 -18 50 -20 50 -2 -1 45 -81 72 -136 45z"/>
<path d="M4810 1700 c0 -11 -7 -23 -15 -26 -8 -4 -15 -12 -15 -19 0 -7 7 -15
15 -19 11 -4 15 -23 15 -80 0 -64 3 -77 19 -86 34 -18 71 -13 71 10 0 15 -7
20 -25 20 -24 0 -25 2 -25 70 0 68 1 70 25 70 16 0 25 6 25 15 0 9 -9 15 -25
15 -20 0 -25 5 -25 25 0 18 -5 25 -20 25 -13 0 -20 -7 -20 -20z"/>
<path d="M7800 1700 c0 -11 -7 -23 -15 -26 -8 -4 -15 -12 -15 -19 0 -7 7 -15
15 -19 11 -4 15 -23 15 -80 0 -64 3 -77 19 -86 34 -18 71 -13 71 10 0 15 -7
20 -25 20 -24 0 -25 2 -25 70 0 68 1 70 25 70 16 0 25 6 25 15 0 9 -9 15 -25
15 -20 0 -25 5 -25 25 0 18 -5 25 -20 25 -13 0 -20 -7 -20 -20z"/>
<path d="M8880 1700 c0 -11 -7 -23 -15 -26 -8 -4 -15 -12 -15 -19 0 -7 7 -15
15 -19 11 -4 15 -23 15 -80 0 -64 3 -77 19 -86 34 -18 71 -13 71 10 0 15 -7
20 -25 20 -24 0 -25 2 -25 70 0 68 1 70 25 70 16 0 25 6 25 15 0 9 -9 15 -25
15 -20 0 -25 5 -25 25 0 18 -5 25 -20 25 -13 0 -20 -7 -20 -20z"/>
<path d="M1210 1565 c0 -98 1 -105 20 -105 19 0 20 7 20 105 0 98 -1 105 -20
105 -19 0 -20 -7 -20 -105z"/>
<path d="M1510 1565 c0 -98 1 -105 20 -105 19 0 20 7 20 105 0 98 -1 105 -20
105 -19 0 -20 -7 -20 -105z"/>
<path d="M1610 1565 c0 -98 1 -105 20 -105 18 0 20 7 20 70 0 75 19 110 58
110 37 0 52 -32 52 -108 0 -65 2 -72 20 -72 18 0 20 7 20 83 0 70 -3 87 -20
105 -23 25 -97 31 -118 10 -9 -9 -12 -9 -12 0 0 7 -9 12 -20 12 -19 0 -20 -7
-20 -105z"/>
<path d="M1875 1644 c-38 -41 -35 -115 4 -155 34 -33 83 -39 119 -13 21 15 22
14 22 -15 0 -35 -30 -71 -59 -71 -10 0 -30 9 -44 20 -29 23 -57 26 -57 6 0
-28 50 -56 99 -56 86 1 101 30 101 189 0 113 -1 121 -19 121 -11 0 -21 -6 -24
-12 -4 -10 -7 -10 -18 0 -7 6 -33 12 -56 12 -35 0 -49 -6 -68 -26z m120 -29
c14 -13 25 -36 25 -50 0 -28 -40 -75 -63 -75 -8 0 -26 9 -41 21 -33 26 -36 79
-6 109 27 27 56 25 85 -5z"/>
<path d="M2245 1644 c-38 -41 -35 -115 4 -155 34 -33 83 -39 119 -13 20 14 22
14 22 0 0 -9 9 -16 20 -16 19 0 20 7 20 105 0 97 -1 105 -19 105 -11 0 -21 -6
-24 -12 -4 -10 -7 -10 -18 0 -7 6 -33 12 -56 12 -35 0 -49 -6 -68 -26z m120
-29 c14 -13 25 -36 25 -50 0 -28 -40 -75 -63 -75 -8 0 -26 9 -41 21 -33 26
-36 79 -6 109 27 27 56 25 85 -5z"/>
<path d="M2490 1565 c0 -98 1 -105 20 -105 18 0 20 7 20 70 0 75 19 110 58
110 37 0 52 -32 52 -108 0 -65 2 -72 20 -72 18 0 20 7 20 83 0 70 -3 87 -20
105 -23 25 -97 31 -118 10 -9 -9 -12 -9 -12 0 0 7 -9 12 -20 12 -19 0 -20 -7
-20 -105z"/>
<path d="M3355 1644 c-38 -41 -35 -115 4 -155 34 -33 83 -39 119 -13 20 14 22
14 22 0 0 -9 9 -16 20 -16 19 0 20 7 20 105 0 97 -1 105 -19 105 -11 0 -21 -6
-24 -12 -4 -10 -7 -10 -18 0 -7 6 -33 12 -56 12 -35 0 -49 -6 -68 -26z m120
-29 c14 -13 25 -36 25 -50 0 -28 -40 -75 -63 -75 -8 0 -26 9 -41 21 -33 26
-36 79 -6 109 27 27 56 25 85 -5z"/>
<path d="M3600 1565 c0 -98 1 -105 20 -105 18 0 20 7 20 70 0 75 19 110 58
110 37 0 52 -32 52 -108 0 -65 2 -72 20 -72 18 0 20 7 20 83 0 70 -3 87 -20
105 -23 25 -97 31 -118 10 -9 -9 -12 -9 -12 0 0 7 -9 12 -20 12 -19 0 -20 -7
-20 -105z"/>
<path d="M4090 1664 c0 -4 14 -51 30 -105 28 -89 33 -99 54 -99 21 0 26 8 41
70 9 39 20 70 24 70 4 0 15 -31 25 -70 16 -61 21 -70 41 -70 22 0 33 24 81
193 4 12 0 17 -15 17 -15 0 -23 -10 -31 -40 -5 -22 -15 -59 -21 -82 l-12 -43
-21 80 c-19 72 -23 80 -46 80 -22 0 -26 -7 -43 -79 -22 -86 -25 -85 -52 17
-13 53 -21 67 -36 67 -10 0 -19 -3 -19 -6z"/>
<path d="M4430 1565 c0 -98 1 -105 20 -105 19 0 20 7 20 105 0 98 -1 105 -20
105 -19 0 -20 -7 -20 -105z"/>
<path d="M5645 1644 c-38 -41 -35 -115 4 -155 34 -33 83 -39 119 -13 20 14 22
14 22 0 0 -9 9 -16 20 -16 19 0 20 7 20 105 0 97 -1 105 -19 105 -11 0 -21 -6
-24 -12 -4 -10 -7 -10 -18 0 -7 6 -33 12 -56 12 -35 0 -49 -6 -68 -26z m120
-29 c14 -13 25 -36 25 -50 0 -28 -40 -75 -63 -75 -8 0 -26 9 -41 21 -33 26
-36 79 -6 109 27 27 56 25 85 -5z"/>
<path d="M5890 1565 c0 -98 1 -105 20 -105 18 0 20 7 20 70 0 75 19 110 58
110 37 0 52 -32 52 -108 0 -65 2 -72 20 -72 18 0 20 7 20 83 0 70 -3 87 -20
105 -23 25 -97 31 -118 10 -9 -9 -12 -9 -12 0 0 7 -9 12 -20 12 -19 0 -20 -7
-20 -105z"/>
<path d="M6155 1644 c-38 -41 -35 -115 4 -155 34 -33 83 -39 119 -13 20 14 22
14 22 0 0 -9 9 -16 20 -16 19 0 20 7 20 105 0 97 -1 105 -19 105 -11 0 -21 -6
-24 -12 -4 -10 -7 -10 -18 0 -7 6 -33 12 -56 12 -35 0 -49 -6 -68 -26z m120
-29 c14 -13 25 -36 25 -50 0 -28 -40 -75 -63 -75 -8 0 -26 9 -41 21 -33 26
-36 79 -6 109 27 27 56 25 85 -5z"/>
<path d="M6415 1644 c-38 -41 -35 -115 4 -155 34 -33 83 -39 119 -13 21 15 22
14 22 -15 0 -35 -30 -71 -59 -71 -10 0 -30 9 -44 20 -29 23 -57 26 -57 6 0
-28 50 -56 99 -56 86 1 101 30 101 189 0 113 -1 121 -19 121 -11 0 -21 -6 -24
-12 -4 -10 -7 -10 -18 0 -7 6 -33 12 -56 12 -35 0 -49 -6 -68 -26z m120 -29
c14 -13 25 -36 25 -50 0 -28 -40 -75 -63 -75 -8 0 -26 9 -41 21 -33 26 -36 79
-6 109 27 27 56 25 85 -5z"/>
<path d="M6676 1644 c-21 -22 -26 -36 -26 -76 0 -66 38 -108 98 -108 38 0 92
30 92 51 0 14 -33 10 -54 -6 -27 -20 -52 -19 -76 5 -34 34 -24 40 60 40 79 0
80 0 80 26 0 59 -37 93 -101 94 -37 0 -52 -5 -73 -26z m114 -24 c29 -29 17
-40 -46 -40 -58 0 -66 10 -37 42 21 24 58 23 83 -2z"/>
<path d="M6900 1565 c0 -98 1 -105 20 -105 18 0 20 7 20 70 0 75 19 110 58
110 37 0 52 -32 52 -108 0 -65 2 -72 20 -72 18 0 20 7 20 70 0 75 19 110 58
110 37 0 52 -32 52 -108 0 -65 2 -72 20 -72 18 0 20 7 20 83 0 70 -3 87 -20
105 -26 27 -94 30 -122 5 -17 -15 -19 -15 -36 0 -22 20 -92 23 -110 5 -9 -9
-12 -9 -12 0 0 7 -9 12 -20 12 -19 0 -20 -7 -20 -105z"/>
<path d="M7316 1644 c-21 -22 -26 -36 -26 -76 0 -66 38 -108 98 -108 38 0 92
30 92 51 0 14 -33 10 -54 -6 -27 -20 -52 -19 -76 5 -34 34 -24 40 60 40 79 0
80 0 80 26 0 59 -37 93 -101 94 -37 0 -52 -5 -73 -26z m114 -24 c29 -29 17
-40 -46 -40 -58 0 -66 10 -37 42 21 24 58 23 83 -2z"/>
<path d="M7540 1565 c0 -98 1 -105 20 -105 18 0 20 7 20 70 0 75 19 110 58
110 37 0 52 -32 52 -108 0 -65 2 -72 20 -72 18 0 20 7 20 83 0 70 -3 87 -20
105 -23 25 -97 31 -118 10 -9 -9 -12 -9 -12 0 0 7 -9 12 -20 12 -19 0 -20 -7
-20 -105z"/>
<path d="M8286 1639 c-58 -69 -16 -179 69 -179 77 0 124 53 112 128 -9 54 -46
82 -107 82 -42 0 -52 -4 -74 -31z m121 -25 c20 -20 24 -31 19 -57 -12 -58 -57
-79 -99 -46 -34 26 -37 79 -7 109 27 27 56 25 87 -6z"/>
<path d="M8610 1590 c0 -73 3 -83 25 -105 26 -27 72 -33 106 -15 13 7 19 7 19
0 0 -5 9 -10 20 -10 19 0 20 7 20 105 0 98 -1 105 -20 105 -18 0 -20 -7 -20
-70 0 -57 -4 -74 -20 -90 -24 -24 -38 -25 -68 -4 -19 13 -22 24 -22 90 0 67
-2 74 -20 74 -18 0 -20 -7 -20 -80z"/>
<path d="M9010 1565 c0 -98 1 -105 20 -105 19 0 20 7 20 105 0 98 -1 105 -20
105 -19 0 -20 -7 -20 -105z"/>
<path d="M9126 1639 c-58 -69 -16 -179 69 -179 77 0 124 53 112 128 -9 54 -46
82 -107 82 -42 0 -52 -4 -74 -31z m121 -25 c20 -20 24 -31 19 -57 -12 -58 -57
-79 -99 -46 -34 26 -37 79 -7 109 27 27 56 25 87 -6z"/>
<path d="M9360 1565 c0 -98 1 -105 20 -105 18 0 20 7 20 70 0 75 19 110 58
110 37 0 52 -32 52 -108 0 -65 2 -72 20 -72 18 0 20 7 20 83 0 70 -3 87 -20
105 -23 25 -97 31 -118 10 -9 -9 -12 -9 -12 0 0 7 -9 12 -20 12 -19 0 -20 -7
-20 -105z"/>
</g>
</svg>
